<svg width="107" height="32" viewBox="0 0 107 32" fill="none" xmlns="http://www.w3.org/2000/svg">
    <g clip-path="url(#clip0_44_107187)">
        <g clip-path="url(#clip1_44_107187)">
            <path d="M64.9913 17.987C64.9913 17.987 64.7798 17.1666 64.7798 16.5586V7.04574H68.3852V25.3686L56.8424 15.2684C56.2248 14.7139 55.8593 14.0947 55.8593 14.0947C55.8593 14.0947 56.0423 14.7774 56.0423 15.3681L56.0391 24.9551H52.4316V6.7041L63.8685 16.6015C64.4819 17.1504 64.9913 17.987 64.9913 17.987Z" fill="#7F7F7F"/>
            <path d="M97.6427 7.04688C103.356 7.04688 104.819 9.42773 104.819 12.8497C104.819 15.3297 103.091 17.7596 99.6051 18.0472L99.2233 18.0667C99.2233 18.0667 99.5603 18.1297 99.9126 18.488L106.238 24.954H101.35L92.5194 15.4791H96.9164C100.855 15.4791 100.97 13.286 100.996 12.7332C101.07 11.3098 100.639 10.1717 97.6358 10.1717H92.608V24.954H88.8613V7.04688H97.6427Z" fill="#7F7F7F"/>
            <path d="M70.0098 16.2565C70.0098 8.75443 75.9521 6.7832 80.9471 6.7832C82.9471 6.7832 84.7181 6.97269 86.582 7.39012L86.5872 11.1944C85.5155 10.846 83.3632 10.0814 80.9477 10.0814C76.2121 10.0814 73.9126 12.0253 73.9126 16.2559C73.9126 19.7213 76.3914 21.9288 80.9477 21.9288C83.3632 21.9288 85.7819 21.3214 86.9533 20.8649L86.9464 24.5555C85.0846 24.9707 82.9476 25.227 80.9477 25.227C75.6124 25.2276 70.0098 22.4873 70.0098 16.2565Z" fill="#7F7F7F"/>
            <path d="M29.4414 7.50781L32.9576 11.0072C32.8616 11.0523 32.7509 11.1081 32.6206 11.1772C32.417 11.2892 32.1744 11.4391 31.8838 11.652C31.3042 12.0728 30.549 12.7449 29.5828 13.8467L22.7106 21.5316C21.5329 22.8468 20.3362 23.889 19.2234 24.4402L15.7051 20.9397C15.8011 20.8923 15.9118 20.8399 16.04 20.7675C16.2436 20.6577 16.4862 20.5056 16.7768 20.296C17.3548 19.8713 18.1122 19.2031 19.0794 18.0996L25.95 10.4276C27.1282 9.114 28.327 8.059 29.4414 7.50781Z" fill="#7F7F7F"/>
            <path d="M15.8247 26.0843C17.379 26.0843 18.8078 25.7588 19.7771 25.2277C20.2201 24.9836 20.8525 24.5634 21.3963 24.1153C21.9379 23.6689 22.7058 22.9734 23.3551 22.2439L30.234 14.5807C31.9692 12.6496 33.0119 12.0533 33.6448 11.8187L37.1731 15.3504C36.4369 16.1825 27.655 26.0659 27.655 26.0659C27.0564 26.7492 26.4256 27.4085 25.9968 27.8237C25.5849 28.225 24.8803 28.823 24.5164 29.1044C22.4511 30.7034 19.6922 32.0002 15.9772 32.0002C7.5592 32.0002 0.751953 24.7601 0.751953 16.4232C0.751953 6.08111 8.39884 0.0799294 15.3633 0.0799294C17.4982 0.0130514 19.2112 0.392584 20.5656 0.878564C21.8171 1.32832 22.7623 1.87226 23.4479 2.24232C22.6373 2.79127 21.853 3.53975 20.5603 4.99881L19.1479 6.60109C18.823 6.46901 17.3822 5.93788 15.5325 5.99752C11.0638 6.13685 6.17634 9.96449 6.35249 16.2438C6.51652 22.1151 11.0965 26.0843 15.8247 26.0843Z" fill="#7F7F7F"/>
            <path d="M28.837 6.77251C28.3924 7.01829 27.7617 7.43739 27.2147 7.88547C26.6747 8.33188 25.9073 9.02741 25.2559 9.75527L18.3786 17.42C16.6434 19.3511 15.6002 19.9452 14.9678 20.1804L11.4395 16.6521C12.1778 15.8178 20.9581 5.93598 20.9581 5.93598C21.5583 5.25271 22.1875 4.5934 22.6163 4.17653C23.0282 3.77526 23.7328 3.17949 24.0999 2.89582C26.1615 1.29688 28.9241 0 32.6391 0C41.0565 0 47.8606 7.24066 47.8606 15.5753C47.8606 25.9208 40.2153 31.9186 33.2493 31.9186C31.116 31.9872 29.4014 31.6076 28.0491 31.1178C26.7944 30.6697 25.8456 30.1224 25.1615 29.754C26.0181 29.1432 26.7511 28.4733 28.0538 27.0025L29.4641 25.4003C29.789 25.5301 31.2304 26.0618 33.0816 26.0038C37.5488 25.8628 42.4378 22.0313 42.2617 15.7537C42.0961 9.88512 37.5129 5.91424 32.7873 5.91424C31.2304 5.91424 29.808 6.24139 28.837 6.77251Z" fill="#7F7F7F"/>
        </g>
    </g>
    <defs>
        <clipPath id="clip0_44_107187">
            <rect width="105.482" height="32" fill="white" transform="translate(0.751953)"/>
        </clipPath>
        <clipPath id="clip1_44_107187">
            <rect width="105.482" height="32" fill="white" transform="translate(0.751953)"/>
        </clipPath>
    </defs>
</svg>