<svg width="116" height="24" viewBox="0 0 116 24" fill="none" xmlns="http://www.w3.org/2000/svg">
    <g clip-path="url(#clip0_44_107166)">
        <g clip-path="url(#clip1_44_107166)">
            <path d="M77.0159 20.1514C78.5363 20.1847 80.0077 19.6012 81.1071 18.5288L83.1372 20.7592C81.7959 22.1651 79.9419 23.2063 77.0521 23.2063C72.1011 23.2063 68.9058 19.8554 68.9058 15.3207C68.8859 14.3043 69.0626 13.2939 69.4257 12.3473C69.7888 11.4007 70.3312 10.5365 71.022 9.80407C71.7127 9.07165 72.5382 8.48541 73.4512 8.07891C74.3641 7.67241 75.3467 7.45362 76.3426 7.43506H76.6171C81.5318 7.43506 84.318 11.251 84.0746 16.5469H72.443C72.8573 18.7455 74.3695 20.1461 77.0159 20.1461V20.1514ZM80.5582 14.0046C80.2475 11.954 79.046 10.4424 76.6378 10.4424C75.6262 10.3821 74.63 10.7165 73.851 11.378C73.0721 12.0395 72.5687 12.9785 72.443 14.0046H80.5582Z" fill="#7F7F7F"/>
            <path d="M0.732422 19.9887L9.67626 10.7183H0.944754V7.80615H13.8193V10.7765L4.87549 20.0468H13.9384V22.9537H0.732422V19.9887Z" fill="#7F7F7F"/>
            <path d="M23.9768 20.1514C25.4973 20.1847 26.9686 19.6012 28.0681 18.5288L30.0982 20.7592C28.7569 22.1651 26.9028 23.2063 24.0131 23.2063C19.0621 23.2063 15.8668 19.8554 15.8668 15.3207C15.8468 14.3052 16.0231 13.2957 16.3856 12.3497C16.7481 11.4038 17.2896 10.54 17.9793 9.80775C18.6689 9.07547 19.4932 8.48902 20.4049 8.0819C21.3167 7.67479 22.2982 7.45499 23.2932 7.43506H23.5677C28.4824 7.43506 31.2686 11.251 31.0252 16.5469H19.4039C19.8182 18.7455 21.3304 20.1461 23.9768 20.1461V20.1514ZM27.5191 14.0046C27.2084 11.954 26.0069 10.4424 23.5987 10.4424C22.5871 10.3821 21.5909 10.7165 20.812 11.378C20.033 12.0395 19.5297 12.9785 19.4039 14.0046H27.5191Z" fill="#7F7F7F"/>
            <path d="M50.3238 15.3375C50.3238 10.4909 53.8713 7.46249 57.7761 7.46249C58.713 7.45013 59.6412 7.64716 60.4956 8.03977C61.35 8.43237 62.1099 9.01104 62.7219 9.73515V0.79248H65.881V22.9113H62.7219V20.7972C62.1214 21.5517 61.3623 22.1586 60.5008 22.5731C59.6393 22.9875 58.6974 23.1989 57.745 23.1914C56.7623 23.1838 55.7906 22.9788 54.8855 22.5879C53.9805 22.1971 53.1597 21.6281 52.4701 20.9135C51.7805 20.1989 51.2355 19.3527 50.8664 18.4232C50.4972 17.4937 50.3111 16.499 50.3186 15.4961C50.3186 15.4327 50.3186 15.3745 50.3186 15.3164L50.3238 15.3375ZM62.898 15.2847C62.8781 14.0019 62.3624 12.7791 61.463 11.8826C60.5636 10.9862 59.3536 10.4889 58.0965 10.499C56.8394 10.5091 55.6372 11.0259 54.7517 11.9366C53.8663 12.8474 53.3695 14.0784 53.3695 15.3613C53.3695 16.6443 53.8663 17.8753 54.7517 18.786C55.6372 19.6968 56.8394 20.2135 58.0965 20.2236C59.3536 20.2337 60.5636 19.7364 61.463 18.84C62.3624 17.9436 62.8781 16.7208 62.898 15.438V15.2847Z" fill="#7F7F7F"/>
            <path d="M86.1204 19.6969L88.9791 18.1801C89.3584 18.8677 89.9142 19.4367 90.5867 19.826C91.2592 20.2153 92.023 20.41 92.7959 20.3893C94.5826 20.3893 95.5096 19.4538 95.5096 18.3915C95.5096 17.1812 93.7799 16.9063 91.8845 16.5152C89.352 15.9867 86.7056 15.1199 86.7056 12.0016C86.7056 9.60737 88.9377 7.39812 92.4593 7.42455C95.23 7.42455 97.286 8.54503 98.4512 10.3632L95.8359 11.8483C95.4691 11.2941 94.9698 10.8446 94.3853 10.5421C93.8008 10.2397 93.1504 10.0944 92.4956 10.12C90.7969 10.12 89.932 10.971 89.932 11.9382C89.932 13.0269 91.3044 13.3335 93.4485 13.8144C95.8929 14.343 98.6636 15.178 98.6636 18.3281C98.6636 20.4422 96.8769 23.2381 92.6406 23.2064C89.5333 23.2064 87.3633 21.9326 86.1152 19.6917" fill="#7F7F7F"/>
            <path d="M107.257 16.1832L104.751 18.9685V22.9113H101.592V0.79248H104.751V15.2741L111.457 7.75846H115.305L109.49 14.2435L115.45 22.9113H111.877L107.257 16.1832Z" fill="#7F7F7F"/>
            <path d="M40.7791 7.45695C37.0244 7.45695 33.8809 9.94102 33.8809 14.0635V22.9111H37.1021V14.4546C37.1021 11.9706 38.5004 10.4854 40.8878 10.4854C43.2753 10.4854 44.4664 11.9706 44.4664 14.4546V22.9111H47.6721V14.0582C47.6721 9.93574 44.5285 7.45166 40.7739 7.45166" fill="#7F7F7F"/>
        </g>
    </g>
    <defs>
        <clipPath id="clip0_44_107166">
            <rect width="114.711" height="22.4148" fill="white" transform="translate(0.732422 0.79248)"/>
        </clipPath>
        <clipPath id="clip1_44_107166">
            <rect width="114.711" height="22.4148" fill="white" transform="translate(0.732422 0.79248)"/>
        </clipPath>
    </defs>
</svg>