<svg width="159" height="32" viewBox="0 0 159 32" fill="none" xmlns="http://www.w3.org/2000/svg">
    <g clip-path="url(#clip0_44_107196)">
        <g clip-path="url(#clip1_44_107196)">
            <path fill-rule="evenodd" clip-rule="evenodd" d="M13.8503 21.6682L18.2553 26.169L14.5806 30.0829C13.3891 31.352 11.4567 31.352 10.2652 30.0829L1.09486 20.3159C-0.0967239 19.0464 -0.0967239 16.9888 1.09486 15.7197C2.28682 14.4505 4.21876 14.4505 5.41034 15.7197L12.4229 23.1885L13.8503 21.6682ZM14.9954 20.4486L18.8969 16.2933L23.212 20.8895L19.6195 24.716L14.9954 20.4486Z" fill="#7F7F7F"/>
            <path fill-rule="evenodd" clip-rule="evenodd" d="M32.6429 24.6285L28.045 20.333L38.8499 8.8251C40.0415 7.55599 41.9734 7.55599 43.1654 8.8251C44.357 10.0942 44.357 12.1519 43.1654 13.4214L32.6429 24.6285ZM31.213 26.1514L27.523 30.0815C26.331 31.3507 24.3991 31.3507 23.2075 30.0815L7.56361 13.4197C6.37203 12.1502 6.37203 10.0926 7.56361 8.82348C8.75519 7.55396 10.6871 7.55396 11.8791 8.82348L25.3653 23.1871L26.8821 21.5716L31.213 26.1514Z" fill="#7F7F7F"/>
            <path fill-rule="evenodd" clip-rule="evenodd" d="M26.0156 19.2794L30.3106 14.6618L38.3154 23.1874L45.3265 15.7202C46.5185 14.4511 48.4504 14.4511 49.642 15.7202C50.8336 16.9897 50.8336 19.0474 49.642 20.3165L40.4732 30.0818C39.2816 31.3509 37.3497 31.3509 36.1581 30.0818L26.0156 19.2794ZM24.2363 17.3843L14.0402 6.52481C12.8486 5.2557 12.8486 3.19806 14.0402 1.92895C15.2321 0.659427 17.1641 0.659427 18.3557 1.92895L28.5623 12.7997L24.2363 17.3843Z" fill="#7F7F7F"/>
            <path fill-rule="evenodd" clip-rule="evenodd" d="M36.6966 1.93059C35.505 0.661481 33.5731 0.661481 32.3811 1.93059L18.8965 16.2926L23.212 20.8889L36.6966 6.52687C37.8882 5.25735 37.8882 3.19971 36.6966 1.93059Z" fill="#7F7F7F"/>
            <path fill-rule="evenodd" clip-rule="evenodd" d="M66.3365 4.17488H62.584V27.6516H76.3331V24.1061H66.3365V4.17488ZM84.4543 11.2339C86.7358 11.2339 88.2669 12.224 89.1074 13.4378L89.2875 11.5533H92.5297V27.6516H89.2875L89.1074 25.7671C88.2669 26.9808 86.7358 27.971 84.4543 27.971C80.3416 27.971 77.5498 24.4255 77.5498 19.6024C77.5498 14.7474 80.3416 11.2339 84.4543 11.2339ZM85.2348 14.6196C82.8933 14.6196 81.2122 16.568 81.2122 19.6024C81.2122 22.6368 82.8933 24.5853 85.2348 24.5853C87.036 24.5853 88.1168 23.5631 88.9273 22.1897V17.0152C88.1168 15.6417 87.036 14.6196 85.2348 14.6196ZM101.612 6.15523H98.0092V11.5533H95.1573V14.8113H98.0092V21.9661C98.0092 25.8629 100.201 27.971 103.653 27.971C105.154 27.971 106.265 27.5238 107.015 27.0128L106.054 24.0103C105.604 24.2978 104.944 24.5214 103.983 24.5214C102.572 24.5214 101.612 23.5631 101.612 21.9341V14.8113H106.175V11.5533H101.612V6.15523ZM114.026 6.15523H110.423V11.5533H107.571V14.8113H110.423V21.9661C110.423 25.8629 112.615 27.971 116.067 27.971C117.568 27.971 118.679 27.5238 119.429 27.0128L118.469 24.0103C118.018 24.2978 117.358 24.5214 116.397 24.5214C114.986 24.5214 114.026 23.5631 114.026 21.9341V14.8113H118.589V11.5533H114.026V6.15523ZM125.449 11.5533H121.847V27.6516H125.449V11.5533ZM123.648 4.04712C122.387 4.04712 121.426 5.03729 121.426 6.41076C121.426 7.78423 122.387 8.7744 123.648 8.7744C124.939 8.7744 125.899 7.78423 125.899 6.41076C125.899 5.03729 124.939 4.04712 123.648 4.04712ZM136.332 11.2339C131.679 11.2339 128.587 14.7474 128.587 19.6024C128.587 24.4255 131.709 27.971 136.362 27.971C139.094 27.971 141.165 26.6614 142.516 24.4255L139.935 22.2855C139.214 23.5631 138.043 24.6172 136.392 24.6172C133.72 24.6172 132.249 22.4133 132.249 19.6024C132.249 16.7597 133.66 14.5877 136.362 14.5877C138.043 14.5877 139.154 15.6098 139.844 16.8874L142.456 14.7793C141.105 12.5435 139.094 11.2339 136.332 11.2339ZM151.328 11.2339C155.981 11.2339 158.263 14.939 158.263 19.4427V20.7843H147.575C147.666 23.3396 149.106 24.745 151.628 24.745C153.399 24.745 154.69 23.9145 155.381 22.8924L157.872 25.0644C156.371 26.9808 154.39 27.971 151.598 27.971C146.915 27.971 143.913 24.4575 143.913 19.6344C143.913 14.7793 146.975 11.2339 151.328 11.2339ZM151.268 14.3002C149.137 14.3002 147.696 15.8014 147.575 18.0373H154.72C154.63 15.8334 153.429 14.3002 151.268 14.3002Z" fill="#7F7F7F"/>
        </g>
    </g>
    <defs>
        <clipPath id="clip0_44_107196">
            <rect width="158.222" height="30.0622" fill="white" transform="translate(0.216797 0.968994)"/>
        </clipPath>
        <clipPath id="clip1_44_107196">
            <rect width="158.222" height="30.0622" fill="white" transform="translate(0.216797 0.968994)"/>
        </clipPath>
    </defs>
</svg>