<svg width="72" height="28" viewBox="0 0 72 28" fill="none" xmlns="http://www.w3.org/2000/svg">
    <g clip-path="url(#clip0_44_107209)">
        <path d="M7.64194 7.54616H0.422852L0.422852 0.814697H22.8591V7.54616H15.6384V27.1851H7.64194V7.54616ZM24.1006 0.814697H45.916V7.54616H32.0978V10.7932H45.916V17.1275H32.0978V20.4536H45.916V27.1851H24.1006V0.814697ZM47.2349 0.814697H60.3551C68.973 0.814697 71.9996 7.30861 71.9996 13.9608C71.9996 22.0381 67.8066 27.1851 58.8021 27.1851H47.2349V0.814697ZM55.2321 20.4536H58.3359C63.3043 20.4536 64.0046 16.3365 64.0046 13.8818C64.0046 12.2181 63.4612 7.62542 57.7152 7.62542H55.1525L55.2321 20.4536Z" fill="#7F7F7F"/>
    </g>
    <defs>
        <clipPath id="clip0_44_107209">
            <rect width="71.5767" height="26.3704" fill="white" transform="translate(0.422852 0.814697)"/>
        </clipPath>
    </defs>
</svg>