<svg width="82" height="28" viewBox="0 0 82 28" fill="none" xmlns="http://www.w3.org/2000/svg">
    <g clip-path="url(#clip0_44_107162)">
        <g clip-path="url(#clip1_44_107162)">
            <path d="M35.0864 0.83067L21.3989 11.1009C20.7556 8.57481 19.2689 6.32941 17.1731 4.71862C15.0772 3.10783 12.4916 2.22324 9.82353 2.20428H0V25.8115H9.82353C12.5058 25.8468 15.1191 24.9824 17.2262 23.363C19.3333 21.7435 20.8064 19.4671 21.3989 16.9148L35.0864 27.1851L48.7738 16.9148V25.8115H64.2132V21.0198H54.0294V2.18831H48.4137V11.0849L35.4302 21.3551L32.6305 18.9593L38.9503 14.1676L45.6139 9.04047L41.75 5.9578L28.7666 15.8766L25.9668 13.4808L38.9503 3.89736L35.0864 0.814697V0.83067ZM5.25559 6.98003H9.46337C10.3341 6.98167 11.1942 7.16693 11.9847 7.52309C12.7877 7.88338 13.5108 8.39343 14.1132 9.02449C14.7471 9.68871 15.2471 10.4636 15.5867 11.3085C16.2849 13.1042 16.2849 15.0872 15.5867 16.8829C15.2691 17.7253 14.7975 18.5046 14.195 19.1829C13.6094 19.8497 12.8908 20.3931 12.0829 20.7802C11.2509 21.1721 10.3383 21.3742 9.41423 21.3712H5.25559V6.996V6.98003ZM81.7318 21.0198V25.8115H66.3088V2.18831H71.9246V21.0198H81.7482H81.7318Z" fill="#7F7F7F"/>
        </g>
    </g>
    <defs>
        <clipPath id="clip0_44_107162">
            <rect width="81.7482" height="26.3704" fill="white" transform="translate(0 0.814697)"/>
        </clipPath>
        <clipPath id="clip1_44_107162">
            <rect width="81.7482" height="26.3704" fill="white" transform="translate(0 0.814697)"/>
        </clipPath>
    </defs>
</svg>
