<svg width="89" height="28" viewBox="0 0 89 28" fill="none" xmlns="http://www.w3.org/2000/svg">
    <g clip-path="url(#clip0_44_107176)">
        <g clip-path="url(#clip1_44_107176)">
            <path d="M22.3482 27.8446L71.4678 23.3606H18.0908L22.3482 27.8446Z" fill="#7F7F7F"/>
            <path d="M82.8593 4.86353C81.8516 4.88831 80.8721 5.2192 80.0387 5.81638V5.19983H76.7393V20.4455H80.0387V11.5335C80.0155 11.1431 80.0685 10.7518 80.1944 10.3837C80.3203 10.0156 80.5164 9.67864 80.7707 9.39349C81.025 9.10834 81.3321 8.88109 81.673 8.72574C82.0139 8.57039 82.3814 8.49025 82.7528 8.49025C83.1243 8.49025 83.4918 8.57039 83.8327 8.72574C84.1736 8.88109 84.4806 9.10834 84.7349 9.39349C84.9892 9.67864 85.1854 10.0156 85.3113 10.3837C85.4372 10.7518 85.4901 11.1431 85.4669 11.5335V20.5016H88.7664V11.5335C88.7664 7.8342 86.3716 4.86353 82.8593 4.86353Z" fill="#7F7F7F"/>
            <path d="M69.1287 4.80786C65.2971 4.80786 62.583 8.33904 62.583 12.8231C62.583 17.5313 65.9889 20.8383 69.448 20.8383C71.2042 20.8383 73.3861 20.2217 75.2487 17.4192L72.3218 15.6256C70.0867 19.1007 66.3082 17.3631 65.8825 13.832H75.3552C76.2067 8.45114 72.854 4.80786 69.1287 4.80786ZM66.0954 10.8613C66.7872 7.33013 71.3639 7.10593 72.0025 10.8613H66.0954Z" fill="#7F7F7F"/>
            <path d="M55.0501 15.9679C55.0208 16.6666 55.1254 17.3643 55.3577 18.0195C55.5899 18.6746 55.9452 19.2738 56.4021 19.7812C56.859 20.2886 57.4083 20.6939 58.0172 20.9729C58.6261 21.2518 59.2821 21.3987 59.9461 21.4048C61.0679 21.3634 62.1635 21.0365 63.1391 20.452L61.0105 17.4252C60.6836 17.6708 60.2943 17.8075 59.8929 17.8176C59.6736 17.811 59.4579 17.757 59.2594 17.6588C59.0608 17.5606 58.8836 17.4203 58.7388 17.2467C58.594 17.0732 58.4847 16.87 58.4177 16.65C58.3508 16.43 58.3276 16.1978 58.3496 15.9679V9.41002H61.1701V5.76675H58.3496V1.95532H55.0501V5.76675H53.2939V9.41002H55.0501V15.9679Z" fill="#7F7F7F"/>
            <path d="M46.5683 20.8375C47.576 20.8127 48.5554 20.4818 49.3888 19.8847V20.4452H52.6882V5.19946H49.3888V14.1675C49.412 14.558 49.359 14.9493 49.2331 15.3174C49.1073 15.6854 48.9111 16.0224 48.6568 16.3076C48.4025 16.5927 48.0954 16.82 47.7545 16.9753C47.4136 17.1307 47.0461 17.2108 46.6747 17.2108C46.3033 17.2108 45.9357 17.1307 45.5948 16.9753C45.2539 16.82 44.9469 16.5927 44.6926 16.3076C44.4383 16.0224 44.2421 15.6854 44.1162 15.3174C43.9903 14.9493 43.9374 14.558 43.9606 14.1675V5.19946H40.6611V14.1675C40.6611 17.8669 43.0559 20.8375 46.5683 20.8375Z" fill="#7F7F7F"/>
            <path d="M31.5607 14.2242L36.4567 20.5018H41.0334L34.4877 12.3745L40.1287 5.20005H35.552L31.5607 10.5248V0.155518H28.208V20.5018H31.5607V14.2242Z" fill="#7F7F7F"/>
            <path d="M23.042 19.7733V20.4459H26.3415V5.20021H23.042V5.87282C22.1428 5.18942 21.0642 4.81727 19.9554 4.80786C16.2302 4.80786 13.3564 8.39509 13.3564 12.8231C13.3564 17.251 16.177 20.8383 19.9554 20.8383C21.0655 20.8376 22.1466 20.4646 23.042 19.7733ZM16.7091 12.8791C16.7091 10.469 18.0396 8.56324 19.9022 8.56324C21.7648 8.56324 23.042 10.469 23.042 12.8791C23.042 15.2893 21.7648 17.195 19.9022 17.195C18.0396 17.195 16.7091 15.2893 16.7091 12.8791Z" fill="#7F7F7F"/>
            <path d="M12.2942 7.94681C12.2928 6.20801 11.6364 4.54084 10.469 3.31132C9.30161 2.0818 7.71871 1.3904 6.06779 1.38892H0.426758V20.4461H3.88588V14.5608H6.28066L10.4848 20.4461H14.7954L9.68657 13.3277C10.5019 12.7196 11.165 11.9124 11.6192 10.9753C12.0733 10.0381 12.305 8.99893 12.2942 7.94681ZM6.12101 10.9735H3.88588V5.03219H6.12101C6.86906 5.03219 7.58647 5.34517 8.11542 5.90228C8.64437 6.45939 8.94153 7.21499 8.94153 8.00286C8.94153 8.79073 8.64437 9.54634 8.11542 10.1034C7.58647 10.6606 6.86906 10.9735 6.12101 10.9735Z" fill="#7F7F7F"/>
        </g>
    </g>
    <defs>
        <clipPath id="clip0_44_107176">
            <rect width="88.3408" height="27.6889" fill="white" transform="translate(0.426758 0.155518)"/>
        </clipPath>
        <clipPath id="clip1_44_107176">
            <rect width="88.3408" height="27.6889" fill="white" transform="translate(0.426758 0.155518)"/>
        </clipPath>
    </defs>
</svg>