<svg width="1355" height="458" viewBox="0 0 1355 458" fill="none" xmlns="http://www.w3.org/2000/svg">
<g filter="url(#filter0_dd_0_1)">
<g clip-path="url(#clip0_0_1)">
<rect x="8.9375" y="42" width="80" height="80" rx="12" transform="rotate(-24.719 8.9375 42)" fill="white"/>
<g clip-path="url(#clip1_0_1)">
<path d="M51.7535 73.6971L55.3433 75.0237L57.59 68.8521C51.3427 65.9009 47.5604 59.9441 46.9595 53.7026L55.1172 56.717C57.655 62.3553 64.4873 65.1587 70.4535 62.4122C73.956 60.7997 76.2683 57.6441 76.9572 54.1213L67.6953 50.6986L65.322 57.1216L41.4363 48.295L43.1436 52.0036L40.2752 53.3241L36.3138 44.7189L44.9189 40.7575L46.2394 43.6258L42.5309 45.3331L63.4547 53.0652L65.8279 46.6421L77.1207 50.8151C76.7198 46.6056 73.9853 42.6971 69.6273 41.0866C64.0439 39.0235 57.9256 41.5433 55.3244 46.6914L48.5519 44.1887C52.559 35.3062 62.817 30.9042 72.1196 34.3418C76.8149 36.0769 80.5536 39.5367 82.6468 44.0838C86.968 53.4705 82.8471 64.6228 73.4604 68.9441C69.3678 70.8282 64.8354 71.1753 60.5469 69.9609L58.3052 76.1184L61.9097 77.4504L56.1629 93.0026L46.0064 89.2494L51.7535 73.6971Z" fill="#EA5511"/>
<path d="M69.6424 76.3733L92.5895 65.8095L93.9099 68.6779L70.9629 79.2417L69.6424 76.3733ZM63.678 86.0715L80.8884 78.1487L82.2088 81.017L64.9985 88.9398L63.678 86.0715Z" fill="#EA5511"/>
</g>
</g>
</g>
<g filter="url(#filter1_dd_0_1)">
<g clip-path="url(#clip2_0_1)">
<rect x="1277.03" y="19" width="80" height="80" rx="12" transform="rotate(28.6058 1277.03 19)" fill="white"/>
<g clip-path="url(#clip3_0_1)">
<path d="M1261.38 80.1675L1304.32 103.586L1302.76 106.449L1259.82 83.0303L1261.38 80.1675ZM1281.09 59.3462C1280.52 59.0356 1279.85 58.964 1279.23 59.1471C1278.61 59.3302 1278.09 59.7529 1277.78 60.3224L1267.24 79.6465L1275.83 84.3302L1286.36 65.0061C1286.67 64.4367 1286.75 63.7672 1286.56 63.1449C1286.38 62.5227 1285.96 61.9986 1285.39 61.6881L1281.09 59.3462ZM1287.73 77.8231C1287.16 77.5125 1286.49 77.4409 1285.87 77.624C1285.25 77.8071 1284.72 78.2298 1284.41 78.7993L1280.12 86.6721L1288.71 91.3558L1293 83.483C1293.31 82.9136 1293.38 82.2441 1293.2 81.6218C1293.02 80.9996 1292.59 80.4755 1292.03 80.165L1287.73 77.8231ZM1298.27 89.1429C1297.7 88.8324 1297.03 88.7608 1296.41 88.9438C1295.79 89.1269 1295.26 89.5497 1294.95 90.1191L1293 93.6977L1301.59 98.3814L1303.54 94.8028C1303.85 94.2334 1303.92 93.5639 1303.74 92.9416C1303.56 92.3194 1303.14 91.7953 1302.57 91.4848L1298.27 89.1429ZM1290.63 68.4124C1290.25 70.2552 1290.33 72.1657 1290.87 73.9694C1291.41 75.7731 1292.39 77.4124 1293.73 78.7374C1294.52 79.5034 1295.42 80.1586 1296.38 80.6851C1299.04 82.1343 1302.17 82.4685 1305.07 81.6142C1307.97 80.7599 1310.42 78.787 1311.87 76.1295C1312.08 75.7499 1312.12 75.3036 1312 74.8887C1311.88 74.4739 1311.6 74.1245 1311.22 73.9175L1306.21 71.1853C1305.64 70.8748 1305.22 70.3507 1305.03 69.7285C1304.85 69.1062 1304.92 68.4367 1305.23 67.8673L1307.96 62.8573C1308.17 62.4777 1308.22 62.0314 1308.1 61.6165C1307.97 61.2017 1307.69 60.8523 1307.31 60.6453C1305.82 59.8273 1304.16 59.3536 1302.46 59.259C1300.76 59.1643 1299.06 59.4511 1297.49 60.0983C1295.76 60.822 1294.23 61.9575 1293.03 63.4063C1291.84 64.8551 1291.01 66.5735 1290.63 68.4124Z" fill="#EA5511"/>
<path d="M1309.92 69.4935L1318.51 74.1772C1318.89 74.3842 1319.33 74.432 1319.75 74.3099C1320.16 74.1879 1320.51 73.906 1320.72 73.5264C1322.17 70.869 1322.5 67.7447 1321.65 64.8408C1320.79 61.9369 1318.82 59.4914 1316.16 58.0422C1315.78 57.8351 1315.34 57.7874 1314.92 57.9094C1314.51 58.0315 1314.16 58.3133 1313.95 58.693L1309.65 66.5801C1308.84 68.0687 1309.13 69.0641 1309.92 69.4935ZM1283.24 40.0879L1303.28 51.0166L1301.72 53.8794L1281.68 42.9507L1283.24 40.0879ZM1280.12 45.8136L1293 52.8391L1291.44 55.702L1278.56 48.6764L1280.12 45.8136Z" fill="#EA5511"/>
</g>
</g>
</g>
<g filter="url(#filter2_dd_0_1)">
<rect x="1142.12" y="279.152" width="80" height="80" rx="12" transform="rotate(13.1158 1142.12 279.152)" fill="white"/>
<g clip-path="url(#clip4_0_1)">
<path d="M1182.52 340.94L1177.55 337.678L1177.96 344.083L1182.52 340.94ZM1202.78 310.031C1203.08 308.743 1202.37 307.48 1201.2 307.207L1154.63 296.355C1153.46 296.083 1152.27 296.904 1151.97 298.192L1148.13 314.658L1198.94 326.496L1202.78 310.031ZM1158.23 309.641C1157.06 309.368 1156.36 308.104 1156.66 306.817C1156.95 305.53 1158.15 304.708 1159.32 304.981C1160.48 305.253 1161.19 306.517 1160.89 307.804C1160.59 309.091 1159.4 309.913 1158.23 309.641ZM1166.7 311.614C1165.53 311.341 1164.82 310.077 1165.12 308.791C1165.42 307.503 1166.61 306.681 1167.78 306.954C1168.95 307.226 1169.66 308.49 1169.36 309.777C1169.06 311.064 1167.87 311.886 1166.7 311.614ZM1175.17 313.587C1174 313.315 1173.29 312.05 1173.59 310.764C1173.89 309.476 1175.08 308.654 1176.25 308.927C1177.42 309.199 1178.13 310.463 1177.83 311.75C1177.53 313.037 1176.33 313.859 1175.17 313.587Z" fill="#EA5610"/>
<path d="M1141.19 344.443C1140.9 345.674 1141.62 346.892 1142.79 347.164L1189.36 358.016C1190.53 358.289 1191.71 357.513 1192 356.281L1197.71 331.768L1146.9 319.929L1141.19 344.443ZM1173.85 331.596C1174.56 331.137 1175.45 331.117 1176.15 331.564L1187.81 338.98C1188.45 339.386 1188.84 340.114 1188.83 340.906C1188.82 341.295 1188.73 341.679 1188.54 342.021C1188.36 342.364 1188.1 342.653 1187.78 342.862L1184.37 345.105L1186.43 348.624C1187.06 349.687 1186.73 351.098 1185.7 351.775C1184.67 352.453 1183.33 352.141 1182.71 351.078L1180.64 347.559L1177.23 349.802C1176.6 350.221 1175.8 350.282 1175.11 349.934C1174.44 349.59 1173.99 348.902 1173.93 348.115L1172.81 333.758C1172.78 333.336 1172.86 332.911 1173.04 332.529C1173.23 332.147 1173.51 331.824 1173.85 331.596ZM1154.33 326.359L1167.03 329.319C1168.2 329.592 1168.92 330.809 1168.63 332.041C1168.35 333.273 1167.17 334.049 1166 333.776L1153.29 330.816C1152.12 330.544 1151.41 329.326 1151.7 328.095C1151.98 326.863 1153.16 326.087 1154.33 326.359ZM1152.26 335.273L1164.96 338.233C1166.13 338.506 1166.84 339.723 1166.56 340.955C1166.27 342.186 1165.09 342.962 1163.92 342.69L1151.22 339.73C1150.05 339.458 1149.33 338.24 1149.62 337.009C1149.91 335.777 1151.08 335.001 1152.26 335.273Z" fill="#EA5610"/>
</g>
</g>
<g filter="url(#filter3_dd_0_1)">
<g clip-path="url(#clip5_0_1)">
<rect x="142.781" y="389.551" width="80" height="80" rx="12" transform="rotate(-40.3218 142.781 389.551)" fill="white"/>
<path d="M226.36 401.017L222.283 404.477L219.345 402.694L204.295 415.466L205.577 418.656L201.5 422.116C200.813 422.699 200.729 423.727 201.312 424.414C201.895 425.1 202.923 425.185 203.61 424.602L228.47 403.503C229.157 402.92 229.241 401.892 228.658 401.205C228.075 400.518 227.047 400.434 226.36 401.017ZM201.041 371.185C200.355 371.767 200.271 372.797 200.853 373.483C201.435 374.169 202.465 374.253 203.151 373.671C203.837 373.089 203.921 372.059 203.339 371.373C202.757 370.687 201.727 370.603 201.041 371.185Z" fill="#EA5610"/>
<path d="M199.684 359.507L164.797 389.116C162.741 390.861 162.488 393.954 164.233 396.01L182.167 417.141L189.708 410.741L186.543 407.012C185.96 406.325 186.044 405.297 186.731 404.714L188.652 403.084C188.473 402.612 188.319 402.132 188.19 401.644L185.678 401.438C184.78 401.364 184.112 400.578 184.186 399.68L184.718 393.181C184.791 392.284 185.578 391.616 186.475 391.69L188.989 391.895C189.195 391.435 189.425 390.985 189.677 390.549L188.048 388.628C187.464 387.941 187.549 386.913 188.236 386.33L193.208 382.111C193.894 381.528 194.922 381.612 195.505 382.299L197.135 384.219C197.607 384.041 198.088 383.887 198.576 383.758L198.781 381.245C198.855 380.348 199.642 379.68 200.539 379.753L207.038 380.285C207.936 380.359 208.604 381.145 208.53 382.043L208.325 384.555C208.785 384.762 209.234 384.992 209.67 385.245L211.591 383.615C212.278 383.032 213.306 383.116 213.889 383.803L217.054 387.532L224.594 381.132L206.66 360.001C204.915 357.945 201.74 357.762 199.684 359.507ZM205.261 376.157C203.205 377.902 200.113 377.649 198.367 375.593C196.622 373.537 196.876 370.444 198.932 368.699C200.988 366.954 204.08 367.207 205.825 369.263C207.57 371.319 207.317 374.412 205.261 376.157Z" fill="#EA5610"/>
<path d="M198.596 401.058C198.961 401.488 199.412 401.818 199.893 402.097L206.868 396.176C206.672 395.657 206.419 395.158 206.054 394.729C204.309 392.672 201.217 392.419 199.161 394.165C197.104 395.91 196.851 399.002 198.596 401.058Z" fill="#EA5610"/>
<path d="M192.092 402.837C192.25 403.163 192.295 403.531 192.22 403.885C192.145 404.239 191.955 404.557 191.679 404.791L190.084 406.145L192.194 408.631L197.33 404.272C196.899 403.934 196.47 403.59 196.111 403.168C193.203 399.741 193.625 394.587 197.052 391.679C200.478 388.77 205.633 389.192 208.541 392.619C208.899 393.041 209.169 393.52 209.433 394L214.568 389.642L212.458 387.156L210.863 388.51C210.588 388.743 210.242 388.879 209.881 388.896C209.52 388.912 209.164 388.808 208.868 388.599C208.016 387.997 207.074 387.514 206.068 387.165C205.726 387.046 205.434 386.818 205.237 386.515C205.039 386.212 204.948 385.852 204.978 385.492L205.148 383.402L201.898 383.136L201.727 385.227C201.668 385.969 201.113 386.578 200.378 386.7C199.331 386.881 198.323 387.202 197.383 387.659C197.057 387.817 196.689 387.862 196.335 387.787C195.981 387.712 195.662 387.522 195.428 387.247L194.075 385.652L191.589 387.762L192.942 389.356C193.424 389.923 193.46 390.744 193.032 391.352C192.428 392.205 191.948 393.147 191.599 394.151C191.361 394.855 190.669 395.304 189.926 395.243L187.835 395.072L187.569 398.321L189.659 398.493C190.019 398.523 190.359 398.671 190.626 398.915C190.893 399.159 191.071 399.485 191.132 399.841C191.313 400.89 191.636 401.898 192.092 402.837ZM185.332 420.87C187.078 422.926 190.17 423.179 192.226 421.434L227.113 391.825C229.169 390.08 229.505 386.917 227.76 384.861L226.705 383.618L184.277 419.627L185.332 420.87Z" fill="#EA5610"/>
</g>
</g>
<defs>
<filter id="filter0_dd_0_1" x="-3.0625" y="-3.45361" width="130.123" height="130.123" filterUnits="userSpaceOnUse" color-interpolation-filters="sRGB">
<feFlood flood-opacity="0" result="BackgroundImageFix"/>
<feColorMatrix in="SourceAlpha" type="matrix" values="0 0 0 0 0 0 0 0 0 0 0 0 0 0 0 0 0 0 127 0" result="hardAlpha"/>
<feMorphology radius="2" operator="erode" in="SourceAlpha" result="effect1_dropShadow_0_1"/>
<feOffset/>
<feGaussianBlur stdDeviation="3"/>
<feColorMatrix type="matrix" values="0 0 0 0 0 0 0 0 0 0 0 0 0 0 0 0 0 0 0.05 0"/>
<feBlend mode="normal" in2="BackgroundImageFix" result="effect1_dropShadow_0_1"/>
<feColorMatrix in="SourceAlpha" type="matrix" values="0 0 0 0 0 0 0 0 0 0 0 0 0 0 0 0 0 0 127 0" result="hardAlpha"/>
<feMorphology radius="3" operator="erode" in="SourceAlpha" result="effect2_dropShadow_0_1"/>
<feOffset/>
<feGaussianBlur stdDeviation="7.5"/>
<feColorMatrix type="matrix" values="0 0 0 0 0 0 0 0 0 0 0 0 0 0 0 0 0 0 0.1 0"/>
<feBlend mode="normal" in2="effect1_dropShadow_0_1" result="effect2_dropShadow_0_1"/>
<feBlend mode="normal" in="SourceGraphic" in2="effect2_dropShadow_0_1" result="shape"/>
</filter>
<filter id="filter1_dd_0_1" x="1226.73" y="7" width="132.537" height="132.537" filterUnits="userSpaceOnUse" color-interpolation-filters="sRGB">
<feFlood flood-opacity="0" result="BackgroundImageFix"/>
<feColorMatrix in="SourceAlpha" type="matrix" values="0 0 0 0 0 0 0 0 0 0 0 0 0 0 0 0 0 0 127 0" result="hardAlpha"/>
<feMorphology radius="2" operator="erode" in="SourceAlpha" result="effect1_dropShadow_0_1"/>
<feOffset/>
<feGaussianBlur stdDeviation="3"/>
<feColorMatrix type="matrix" values="0 0 0 0 0 0 0 0 0 0 0 0 0 0 0 0 0 0 0.05 0"/>
<feBlend mode="normal" in2="BackgroundImageFix" result="effect1_dropShadow_0_1"/>
<feColorMatrix in="SourceAlpha" type="matrix" values="0 0 0 0 0 0 0 0 0 0 0 0 0 0 0 0 0 0 127 0" result="hardAlpha"/>
<feMorphology radius="3" operator="erode" in="SourceAlpha" result="effect2_dropShadow_0_1"/>
<feOffset/>
<feGaussianBlur stdDeviation="7.5"/>
<feColorMatrix type="matrix" values="0 0 0 0 0 0 0 0 0 0 0 0 0 0 0 0 0 0 0.1 0"/>
<feBlend mode="normal" in2="effect1_dropShadow_0_1" result="effect2_dropShadow_0_1"/>
<feBlend mode="normal" in="SourceGraphic" in2="effect2_dropShadow_0_1" result="shape"/>
</filter>
<filter id="filter2_dd_0_1" x="1111.96" y="267.152" width="120.066" height="120.067" filterUnits="userSpaceOnUse" color-interpolation-filters="sRGB">
<feFlood flood-opacity="0" result="BackgroundImageFix"/>
<feColorMatrix in="SourceAlpha" type="matrix" values="0 0 0 0 0 0 0 0 0 0 0 0 0 0 0 0 0 0 127 0" result="hardAlpha"/>
<feMorphology radius="2" operator="erode" in="SourceAlpha" result="effect1_dropShadow_0_1"/>
<feOffset/>
<feGaussianBlur stdDeviation="3"/>
<feColorMatrix type="matrix" values="0 0 0 0 0 0 0 0 0 0 0 0 0 0 0 0 0 0 0.05 0"/>
<feBlend mode="normal" in2="BackgroundImageFix" result="effect1_dropShadow_0_1"/>
<feColorMatrix in="SourceAlpha" type="matrix" values="0 0 0 0 0 0 0 0 0 0 0 0 0 0 0 0 0 0 127 0" result="hardAlpha"/>
<feMorphology radius="3" operator="erode" in="SourceAlpha" result="effect2_dropShadow_0_1"/>
<feOffset/>
<feGaussianBlur stdDeviation="7.5"/>
<feColorMatrix type="matrix" values="0 0 0 0 0 0 0 0 0 0 0 0 0 0 0 0 0 0 0.1 0"/>
<feBlend mode="normal" in2="effect1_dropShadow_0_1" result="effect2_dropShadow_0_1"/>
<feBlend mode="normal" in="SourceGraphic" in2="effect2_dropShadow_0_1" result="shape"/>
</filter>
<filter id="filter3_dd_0_1" x="130.781" y="325.784" width="136.76" height="136.76" filterUnits="userSpaceOnUse" color-interpolation-filters="sRGB">
<feFlood flood-opacity="0" result="BackgroundImageFix"/>
<feColorMatrix in="SourceAlpha" type="matrix" values="0 0 0 0 0 0 0 0 0 0 0 0 0 0 0 0 0 0 127 0" result="hardAlpha"/>
<feMorphology radius="2" operator="erode" in="SourceAlpha" result="effect1_dropShadow_0_1"/>
<feOffset/>
<feGaussianBlur stdDeviation="3"/>
<feColorMatrix type="matrix" values="0 0 0 0 0 0 0 0 0 0 0 0 0 0 0 0 0 0 0.05 0"/>
<feBlend mode="normal" in2="BackgroundImageFix" result="effect1_dropShadow_0_1"/>
<feColorMatrix in="SourceAlpha" type="matrix" values="0 0 0 0 0 0 0 0 0 0 0 0 0 0 0 0 0 0 127 0" result="hardAlpha"/>
<feMorphology radius="3" operator="erode" in="SourceAlpha" result="effect2_dropShadow_0_1"/>
<feOffset/>
<feGaussianBlur stdDeviation="7.5"/>
<feColorMatrix type="matrix" values="0 0 0 0 0 0 0 0 0 0 0 0 0 0 0 0 0 0 0.1 0"/>
<feBlend mode="normal" in2="effect1_dropShadow_0_1" result="effect2_dropShadow_0_1"/>
<feBlend mode="normal" in="SourceGraphic" in2="effect2_dropShadow_0_1" result="shape"/>
</filter>
<clipPath id="clip0_0_1">
<rect x="8.9375" y="42" width="80" height="80" rx="12" transform="rotate(-24.719 8.9375 42)" fill="white"/>
</clipPath>
<clipPath id="clip1_0_1">
<rect width="52.17" height="52.17" fill="white" transform="translate(27.3965 48.821) rotate(-24.719)"/>
</clipPath>
<clipPath id="clip2_0_1">
<rect x="1277.03" y="19" width="80" height="80" rx="12" transform="rotate(28.6058 1277.03 19)" fill="white"/>
</clipPath>
<clipPath id="clip3_0_1">
<rect width="52.1739" height="52.1739" fill="white" transform="translate(1282.58 37.876) rotate(28.6058)"/>
</clipPath>
<clipPath id="clip4_0_1">
<rect width="52.17" height="52.17" fill="white" transform="translate(1152.51 295.862) rotate(13.1158)"/>
</clipPath>
<clipPath id="clip5_0_1">
<rect x="142.781" y="389.551" width="80" height="80" rx="12" transform="rotate(-40.3218 142.781 389.551)" fill="white"/>
</clipPath>
</defs>
</svg>
