<svg width="51" height="50" viewBox="0 0 51 50" fill="none" xmlns="http://www.w3.org/2000/svg">
<g clip-path="url(#clip0_44_107241)">
<path d="M11.4875 19.7915C13.6507 19.7915 15.7654 20.433 17.5641 21.6348C19.3627 22.8366 20.7646 24.5448 21.5924 26.5434C22.4203 28.542 22.6369 30.7411 22.2148 32.8628C21.7928 34.9845 20.7511 36.9333 19.2215 38.463C17.6918 39.9926 15.743 41.0343 13.6213 41.4563C11.4996 41.8784 9.30047 41.6618 7.3019 40.8339C5.30333 40.0061 3.59513 38.6042 2.3933 36.8056C1.19147 35.0069 0.55 32.8922 0.55 30.729L0.5 29.1665C0.5 23.3649 2.80468 17.8009 6.90704 13.6985C11.0094 9.59618 16.5734 7.2915 22.375 7.2915V13.5415C20.3222 13.536 18.2887 13.9375 16.392 14.7227C14.4953 15.508 12.7731 16.6615 11.325 18.1165C10.7622 18.6783 10.243 19.2821 9.77188 19.9228C10.3313 19.8353 10.9031 19.7884 11.4844 19.7884L11.4875 19.7915ZM39.6125 19.7915C41.7757 19.7915 43.8904 20.433 45.6891 21.6348C47.4877 22.8366 48.8896 24.5448 49.7174 26.5434C50.5453 28.542 50.7619 30.7411 50.3398 32.8628C49.9178 34.9845 48.8761 36.9333 47.3465 38.463C45.8168 39.9926 43.868 41.0343 41.7463 41.4563C39.6246 41.8784 37.4255 41.6618 35.4269 40.8339C33.4283 40.0061 31.7201 38.6042 30.5183 36.8056C29.3165 35.0069 28.675 32.8922 28.675 30.729L28.625 29.1665C28.625 23.3649 30.9297 17.8009 35.032 13.6985C39.1344 9.59618 44.6984 7.2915 50.5 7.2915V13.5415C48.4472 13.536 46.4137 13.9375 44.517 14.7227C42.6203 15.508 40.8981 16.6615 39.45 18.1165C38.8872 18.6783 38.368 19.2821 37.8969 19.9228C38.4563 19.8353 39.0281 19.7884 39.6125 19.7884V19.7915Z" fill="#EA5511"/>
</g>
<defs>
<clipPath id="clip0_44_107241">
<rect width="50" height="50" fill="white" transform="translate(0.5)"/>
</clipPath>
</defs>
</svg>
