<svg width="469" height="308" viewBox="0 0 469 308" fill="none" xmlns="http://www.w3.org/2000/svg">
<path d="M502.501 432.501C595.008 339.993 595.007 190.008 502.5 97.5005C409.992 4.99252 260.007 4.9921 167.5 97.4995C74.9921 190.007 74.9925 339.992 167.5 432.5C260.008 525.007 409.993 525.008 502.501 432.501Z" fill="#D54D0F"/>
<path d="M528.871 260.138L541.811 291.964L551.603 242.652L557.898 193.34L536.915 156.269L540.458 147.011C524.645 119.538 503.472 95.5464 478.38 76.4372L424.302 70.2358L397.723 82.8261L343.515 87.3725L321.482 112.553L290.006 126.542L289.307 146.826L265.176 153.471L271.471 176.204L228.454 215.723V260.138L290.356 279.374L308.892 349.669L306.444 387.44L321.132 415.418L350.509 402.128L381.285 358.762L383.034 315.046L402.619 275.177L435.843 215.723L480.259 257.69L503.69 222.368L528.871 260.138Z" fill="white"/>
<path d="M102 218.416L116.214 234.567L122.365 193.381L140.888 149.916L208.127 122.666L219.225 85.7336L284.062 94.9665L302.761 69.5174L264.162 57.1021L205.157 66.3153C152.715 100.491 114.648 154.868 102 218.416Z" fill="white"/>
<path d="M140.226 399.82L172.87 437.156L152.635 388.164L163.906 353.621L178.65 311.111L149.277 270.369L116.911 234.66L98.2197 271.636C99.5277 319.197 114.863 363.247 140.226 399.82Z" fill="white"/>
<path d="M335.006 28.1172C311.8 28.1172 289.381 31.4704 268.188 37.6886L264.858 57.1922L293.856 46.3744L343.075 62.157L390.933 47.3117L438.036 51.6427C406.883 36.5708 371.933 28.1172 335.006 28.1172Z" fill="white"/>
<path d="M320.819 410.93L305.733 382.194L305.746 381.996L308.187 344.339L289.779 274.529L227.755 255.256V210.018L270.682 170.581L264.314 147.586L288.626 140.892L289.323 120.683L321.057 106.58L343.175 81.3026L343.456 81.2788L397.538 76.7421L424.183 64.1211L424.382 64.1449L500.873 72.9175L501.048 73.0979L548.571 122.38L537.687 150.816L558.623 187.803L558.594 188.034L552.299 237.346L542.043 288.995L528.251 255.073L503.694 218.237L480.383 253.376L436.017 211.455L403.232 270.125L383.73 309.829L381.98 353.604L350.973 397.294L320.819 410.93ZM307.153 381.89L321.444 409.11L350.048 396.172L380.593 353.13L382.34 309.472L382.405 309.34L401.99 269.471L435.67 209.201L480.134 251.215L503.688 215.709L529.517 254.478L541.579 284.141L550.917 237.119L557.175 188.086L536.144 150.931L546.944 122.71L500.214 74.2492L424.421 65.5578L397.782 78.127L343.855 82.6497L321.907 107.734L290.691 121.608L289.988 141.968L266.038 148.564L272.26 171.033L229.154 210.635V254.228L290.934 273.425L309.597 344.206L307.153 381.89Z" fill="#EAEAEB"/>
<path d="M228.743 255.378L228.165 254.105L265.236 237.318L314.334 203.657L270.542 170.987L288.928 140.704L342.614 144.26L320.633 107.289L388.455 106.462L397.249 76.5633L456.329 93.7322L500.935 72.6226L512.557 104.207L548.069 121.917L547.443 123.17L511.438 105.212L511.34 104.951L500.15 74.5419L456.45 95.2234L398.196 78.2951L389.505 107.849L323.074 108.657L345.177 145.831L289.684 142.156L272.399 170.626L316.739 203.705L265.92 238.531L228.743 255.378Z" fill="#EAEAEB"/>
<path d="M352.518 398.139L306.221 382.707L306.663 381.38L348.497 395.325L307.894 344.143L337.876 321.782L337.482 321.488L338.137 321.307L324.473 282.57L289.946 274.602L263.902 239.215L226.614 209.766L315.378 202.994L371.343 181.012L362.088 234.226L373.805 274.89L383.901 310.136L340.608 322.077L381.705 352.805L380.866 353.926L339.045 322.656L309.886 344.404L352.518 398.139ZM290.764 273.353L325.536 281.375L339.487 320.933L382.165 309.161L372.459 275.273L360.653 234.299L360.682 234.141L369.539 183.219L315.589 204.376L230.292 210.886L264.972 238.307L290.764 273.353Z" fill="#EAEAEB"/>
<path d="M323.412 282.905L360.362 234.43L315.147 204.263L315.924 203.099L362.379 234.094L361.927 234.686L326.596 281.038L372.934 274.404L408.487 258.121L409.069 259.391L373.233 275.775L323.412 282.905Z" fill="#EAEAEB"/>
<path d="M361.585 234.929L361.155 233.599L433.825 210.24L367.579 182.494L271.39 171.502L271.548 170.113L368.954 181.243L342.212 143.9L434.677 167.269L371.551 182.464L371.731 182.715L437.859 210.413L361.585 234.929ZM345.577 146.192L370.673 181.236L428.839 167.236L345.577 146.192Z" fill="#EAEAEB"/>
<path d="M529.296 255.295L528.444 254.186L550.705 237.062L538.172 213.766L556.83 188.22L521.002 171.689L536.089 150.819L511.779 106.066L456.386 95.1897L389.289 107.809L344.344 145.58L343.446 144.51L388.669 106.501L388.849 106.468L456.392 93.7656L512.694 104.821L537.739 150.925L523.131 171.131L558.966 187.666L539.823 213.879L552.5 237.447L529.296 255.295Z" fill="#EAEAEB"/>
<path d="M503.536 217.686L486.335 207.982L435.195 211.065L432.088 167.212L388.415 107.569L389.544 106.742L433.453 166.709L433.468 166.912L436.492 209.586L486.664 206.56L503.845 216.255L538.937 213.127L539.06 214.52L503.536 217.686Z" fill="#EAEAEB"/>
<path d="M486.571 208.19L430.472 167.178L470.586 144.36L455.718 94.6779L457.059 94.2764L471.756 143.395L511.751 104.939L512.721 105.948L472.597 144.527L523.227 171.231L486.571 208.19ZM433.043 167.325L486.425 206.35L520.905 171.587L471.426 145.491L433.043 167.325Z" fill="#EAEAEB"/>
<path d="M172.281 449.008L116.578 385.217L98.3874 331.619L87.0576 283.667L111.245 235.82L91.2404 213.092L101.626 163.415L150.308 92.7265L150.4 92.6579L190.216 62.994L264.644 51.3732L268.291 30.0104L318.027 20.3984L376.637 20.7607L462.585 48.6005L395.843 42.4649L346.218 57.8586L346.009 57.7914L295.286 41.5276L267.38 51.937L306.347 64.4712L286.165 91.9389L219.223 82.4067L207.811 120.389L138.156 148.616L119.128 193.266L112.821 235.489L146.107 272.211L176.777 314.745L161.393 359.099L149.809 394.604L172.281 449.008ZM117.858 384.635L167.748 441.698L148.32 394.661L160.07 358.653L175.219 314.975L145.023 273.09L112.248 236.936L88.5377 283.841L99.7332 331.232L117.858 384.635ZM92.7526 212.693L111.611 234.12L117.806 192.799L137.095 147.535L137.363 147.425L206.663 119.341L218.23 80.8497L285.534 90.4351L304.071 65.2071L265.193 52.7022L190.773 64.323L151.328 93.7099L102.858 164.092L92.7526 212.693ZM295.252 40.0476L346.228 56.3925L395.696 41.0478L395.834 41.0604L450.192 46.0573L376.31 22.1247L318.155 21.7834L269.508 31.1994L266.144 50.906L295.252 40.0476Z" fill="#EAEAEB"/>
<path d="M148.861 395.302L116.311 385.441L136.33 334.45L106.618 291.667L106.639 291.418L111.384 235.653L112.778 235.771L108.055 291.285L137.905 334.267L118.168 384.543L149.267 393.963L148.861 395.302Z" fill="#EAEAEB"/>
<path d="M107.367 292.239L87.54 284.404L88.0534 283.103L107.305 290.713L145.28 272.053L145.899 273.309L107.367 292.239Z" fill="#EAEAEB"/>
<path d="M92.4151 213.452L91.5771 212.332L117.542 192.88L101.218 163.483L137.026 147.576L150.339 92.2183L207.536 119.233L206.939 120.497L151.297 94.2187L138.225 148.575L103.184 164.141L119.358 193.267L92.4151 213.452Z" fill="#EAEAEB"/>
<path d="M150.935 93.9083L150.7 92.529L216.837 81.2412L190.957 64.5549L191.715 63.3784L220.618 82.0147L150.935 93.9083Z" fill="#EAEAEB"/>
<path d="M264.885 51.3987L218.35 81.0215L219.101 82.2016L265.637 52.5789L264.885 51.3987Z" fill="#EAEAEB"/>
<path d="M345.494 58.1568L318.481 21.9837L294.564 40.6983L293.702 39.5974L318.746 20L345.561 55.9101L375.695 20.2868L395.581 41.1824L394.568 42.1462L375.755 22.3809L345.494 58.1568Z" fill="#EAEAEB"/>
<path d="M364.789 234.372C364.789 236.093 363.393 237.49 361.67 237.49C359.949 237.49 358.553 236.094 358.553 234.372C358.553 232.65 359.949 231.254 361.67 231.254C363.392 231.254 364.789 232.65 364.789 234.372Z" fill="#BFBFC0"/>
<path d="M318.655 203.681C318.655 205.402 317.259 206.799 315.535 206.799C313.815 206.799 312.417 205.403 312.417 203.681C312.417 201.959 313.813 200.562 315.535 200.562C317.259 200.562 318.655 201.958 318.655 203.681Z" fill="#BFBFC0"/>
<path d="M275.211 170.575C275.211 172.295 273.815 173.693 272.093 173.693C270.372 173.693 268.975 172.297 268.975 170.575C268.975 168.853 270.371 167.455 272.093 167.455C273.815 167.455 275.211 168.851 275.211 170.575Z" fill="#BFBFC0"/>
<path d="M231.573 210.39C231.573 212.111 230.177 213.508 228.453 213.508C226.732 213.508 225.335 212.112 225.335 210.39C225.335 208.668 226.731 207.271 228.453 207.271C230.177 207.271 231.573 208.667 231.573 210.39Z" fill="#BFBFC0"/>
<path d="M267.479 238.425C267.479 240.145 266.082 241.542 264.359 241.542C262.638 241.542 261.242 240.145 261.242 238.425C261.242 236.701 262.638 235.307 264.359 235.307C266.082 235.305 267.479 236.701 267.479 238.425Z" fill="#BFBFC0"/>
<path d="M232.038 254.741C232.038 256.462 230.642 257.859 228.919 257.859C227.198 257.859 225.802 256.463 225.802 254.741C225.802 253.019 227.198 251.623 228.919 251.623C230.642 251.622 232.038 253.018 232.038 254.741Z" fill="#BFBFC0"/>
<path d="M293.358 273.977C293.358 275.697 291.962 277.095 290.239 277.095C288.518 277.095 287.122 275.699 287.122 273.977C287.122 272.255 288.518 270.858 290.239 270.858C291.962 270.857 293.358 272.253 293.358 273.977Z" fill="#BFBFC0"/>
<path d="M386.153 308.994C386.153 310.715 384.757 312.112 383.035 312.112C381.314 312.112 379.918 310.716 379.918 308.994C379.918 307.271 381.314 305.876 383.035 305.876C384.757 305.875 386.153 307.271 386.153 308.994Z" fill="#BFBFC0"/>
<path d="M376.36 274.837C376.36 276.558 374.964 277.955 373.242 277.955C371.521 277.955 370.125 276.559 370.125 274.837C370.125 273.113 371.521 271.719 373.242 271.719C374.964 271.719 376.36 273.113 376.36 274.837Z" fill="#BFBFC0"/>
<path d="M411.896 258.982C411.896 260.703 410.5 262.099 408.778 262.099C407.057 262.099 405.661 260.703 405.661 258.982C405.661 257.258 407.057 255.862 408.778 255.862C410.5 255.862 411.896 257.26 411.896 258.982Z" fill="#BFBFC0"/>
<path d="M438.961 210.39C438.961 212.111 437.564 213.508 435.842 213.508C434.122 213.508 432.726 212.112 432.726 210.39C432.726 208.668 434.122 207.271 435.842 207.271C437.564 207.271 438.961 208.667 438.961 210.39Z" fill="#BFBFC0"/>
<path d="M373.242 182.117C373.242 183.838 371.846 185.235 370.124 185.235C368.402 185.235 367.006 183.839 367.006 182.117C367.006 180.395 368.402 178.999 370.124 178.999C371.845 178.998 373.242 180.394 373.242 182.117Z" fill="#BFBFC0"/>
<path d="M347.014 145.046C347.014 146.767 345.618 148.164 343.896 148.164C342.173 148.164 340.777 146.768 340.777 145.046C340.777 143.324 342.173 141.928 343.896 141.928C345.616 141.926 347.014 143.322 347.014 145.046Z" fill="#BFBFC0"/>
<path d="M292.659 141.928C292.659 143.648 291.263 145.046 289.54 145.046C287.819 145.046 286.423 143.65 286.423 141.928C286.423 140.206 287.819 138.81 289.54 138.81C291.263 138.81 292.659 140.206 292.659 141.928Z" fill="#BFBFC0"/>
<path d="M268.367 148.162C268.367 149.883 266.971 151.28 265.247 151.28C263.526 151.28 262.129 149.884 262.129 148.162C262.129 146.44 263.525 145.044 265.247 145.044C266.971 145.044 268.367 146.44 268.367 148.162Z" fill="#BFBFC0"/>
<path d="M292.659 121.38C292.659 123.101 291.263 124.499 289.54 124.499C287.819 124.499 286.423 123.102 286.423 121.38C286.423 119.658 287.819 118.261 289.54 118.261C291.263 118.261 292.659 119.657 292.659 121.38Z" fill="#BFBFC0"/>
<path d="M324.892 107.738C324.892 109.458 323.496 110.856 321.772 110.856C320.051 110.856 318.655 109.46 318.655 107.738C318.655 106.016 320.051 104.62 321.772 104.62C323.496 104.618 324.892 106.014 324.892 107.738Z" fill="#BFBFC0"/>
<path d="M347.014 81.6284C347.014 83.349 345.618 84.7465 343.896 84.7465C342.173 84.7465 340.777 83.3504 340.777 81.6284C340.777 79.9049 342.173 78.5088 343.896 78.5088C345.616 78.5088 347.014 79.9049 347.014 81.6284Z" fill="#BFBFC0"/>
<path d="M392.098 107.157C392.098 108.878 390.702 110.275 388.98 110.275C387.259 110.275 385.863 108.879 385.863 107.157C385.863 105.435 387.259 104.039 388.98 104.039C390.702 104.038 392.098 105.434 392.098 107.157Z" fill="#BFBFC0"/>
<path d="M401.191 77.5463C401.191 79.267 399.795 80.6645 398.073 80.6645C396.352 80.6645 394.956 79.2684 394.956 77.5463C394.956 75.8243 396.352 74.4268 398.073 74.4268C399.795 74.4268 401.191 75.8229 401.191 77.5463Z" fill="#BFBFC0"/>
<path d="M427.536 64.8404C427.536 66.561 426.14 67.9585 424.417 67.9585C422.696 67.9585 421.3 66.5624 421.3 64.8404C421.3 63.1183 422.696 61.7222 424.417 61.7222C426.14 61.7208 427.536 63.1169 427.536 64.8404Z" fill="#BFBFC0"/>
<path d="M459.506 94.479C459.506 96.1997 458.11 97.5972 456.388 97.5972C454.667 97.5972 453.27 96.2011 453.27 94.479C453.27 92.757 454.666 91.3608 456.388 91.3608C458.11 91.3608 459.506 92.757 459.506 94.479Z" fill="#BFBFC0"/>
<path d="M474.428 144.288C474.428 146.008 473.032 147.406 471.31 147.406C469.589 147.406 468.193 146.01 468.193 144.288C468.193 142.565 469.589 141.168 471.31 141.168C473.032 141.168 474.428 142.564 474.428 144.288Z" fill="#BFBFC0"/>
<path d="M435.844 167.28C435.844 169.001 434.448 170.398 432.726 170.398C431.004 170.398 429.607 169.002 429.607 167.28C429.607 165.558 431.004 164.162 432.726 164.162C434.446 164.162 435.844 165.558 435.844 167.28Z" fill="#BFBFC0"/>
<path d="M462.625 47.4717C462.625 49.1924 461.229 50.5899 459.505 50.5899C457.785 50.5899 456.389 49.1938 456.389 47.4717C456.389 45.7496 457.785 44.3535 459.505 44.3535C461.229 44.3521 462.625 45.7482 462.625 47.4717Z" fill="#BFBFC0"/>
<path d="M398.886 42.2241C398.886 43.9448 397.49 45.3409 395.768 45.3409C394.047 45.3409 392.651 43.9448 392.651 42.2241C392.651 40.5021 394.047 39.106 395.768 39.106C397.49 39.1046 398.886 40.5007 398.886 42.2241Z" fill="#BFBFC0"/>
<path d="M349.692 57.1255C349.692 58.8462 348.296 60.2437 346.574 60.2437C344.854 60.2437 343.456 58.8476 343.456 57.1255C343.456 55.4034 344.852 54.0073 346.574 54.0073C348.296 54.0073 349.692 55.4034 349.692 57.1255Z" fill="#BFBFC0"/>
<path d="M322.939 21.084C322.939 22.8047 321.542 24.2022 319.82 24.2022C318.1 24.2022 316.702 22.8061 316.702 21.084C316.702 19.3619 318.098 17.9658 319.82 17.9658C321.542 17.9658 322.939 19.3619 322.939 21.084Z" fill="#BFBFC0"/>
<path d="M298.895 41.2354C298.895 42.956 297.499 44.3535 295.775 44.3535C294.055 44.3535 292.657 42.9574 292.657 41.2354C292.657 39.5119 294.053 38.1172 295.775 38.1172C297.499 38.1158 298.895 39.5119 298.895 41.2354Z" fill="#BFBFC0"/>
<path d="M272.093 30.3936C272.093 32.1142 270.697 33.5118 268.974 33.5118C267.253 33.5118 265.855 32.1156 265.855 30.3936C265.855 28.6701 267.252 27.2754 268.974 27.2754C270.697 27.274 272.093 28.6701 272.093 30.3936Z" fill="#BFBFC0"/>
<path d="M268.367 51.9858C268.367 53.7065 266.971 55.104 265.247 55.104C263.526 55.104 262.129 53.7079 262.129 51.9858C262.129 50.2637 263.525 48.8662 265.247 48.8662C266.971 48.8676 268.367 50.2637 268.367 51.9858Z" fill="#BFBFC0"/>
<path d="M308.336 64.8404C308.336 66.561 306.94 67.9585 305.217 67.9585C303.496 67.9585 302.099 66.5624 302.099 64.8404C302.099 63.1183 303.495 61.7222 305.217 61.7222C306.94 61.7208 308.336 63.1169 308.336 64.8404Z" fill="#BFBFC0"/>
<path d="M288.577 91.3623C288.577 93.083 287.181 94.4805 285.457 94.4805C283.736 94.4805 282.339 93.0844 282.339 91.3623C282.339 89.6403 283.735 88.2441 285.457 88.2441C287.181 88.2427 288.577 89.6389 288.577 91.3623Z" fill="#BFBFC0"/>
<path d="M221.845 81.6304C221.845 83.3511 220.449 84.7486 218.727 84.7486C217.006 84.7486 215.608 83.3525 215.608 81.6304C215.608 79.9083 217.004 78.5122 218.727 78.5122C220.449 78.5108 221.845 79.9069 221.845 81.6304Z" fill="#BFBFC0"/>
<path d="M153.937 93.2202C153.937 94.9408 152.54 96.3384 150.818 96.3384C149.098 96.3384 147.7 94.9422 147.7 93.2202C147.7 91.4981 149.096 90.1006 150.818 90.1006C152.54 90.1006 153.937 91.4967 153.937 93.2202Z" fill="#BFBFC0"/>
<path d="M194.268 63.9688C194.268 65.6894 192.871 67.087 191.148 67.087C189.427 67.087 188.031 65.6908 188.031 63.9688C188.031 62.2467 189.427 60.8506 191.148 60.8506C192.871 60.8492 194.268 62.2453 194.268 63.9688Z" fill="#BFBFC0"/>
<path d="M210.355 119.624C210.355 121.345 208.959 122.743 207.236 122.743C205.515 122.743 204.119 121.347 204.119 119.624C204.119 117.902 205.515 116.505 207.236 116.505C208.959 116.505 210.355 117.901 210.355 119.624Z" fill="#BFBFC0"/>
<path d="M140.759 148.162C140.759 149.883 139.363 151.28 137.641 151.28C135.92 151.28 134.522 149.884 134.522 148.162C134.522 146.44 135.919 145.044 137.641 145.044C139.363 145.044 140.759 146.44 140.759 148.162Z" fill="#BFBFC0"/>
<path d="M105.437 164.163C105.437 165.884 104.04 167.281 102.318 167.281C100.598 167.281 99.2002 165.885 99.2002 164.163C99.2002 162.441 100.596 161.045 102.318 161.045C104.04 161.044 105.437 162.44 105.437 164.163Z" fill="#BFBFC0"/>
<path d="M121.349 192.772C121.349 194.493 119.953 195.891 118.23 195.891C116.51 195.891 115.112 194.495 115.112 192.772C115.112 191.05 116.508 189.654 118.23 189.654C119.953 189.653 121.349 191.049 121.349 192.772Z" fill="#BFBFC0"/>
<path d="M95.1143 212.893C95.1143 214.613 93.7182 216.011 91.9961 216.011C90.2754 216.011 88.8779 214.615 88.8779 212.893C88.8779 211.171 90.274 209.774 91.9961 209.774C93.7182 209.773 95.1143 211.169 95.1143 212.893Z" fill="#BFBFC0"/>
<path d="M115.112 235.712C115.112 237.433 113.716 238.83 111.994 238.83C110.273 238.83 108.876 237.434 108.876 235.712C108.876 233.99 110.272 232.594 111.994 232.594C113.716 232.594 115.112 233.99 115.112 235.712Z" fill="#BFBFC0"/>
<path d="M90.916 284.149C90.916 285.87 89.5199 287.268 87.7979 287.268C86.0772 287.268 84.6797 285.871 84.6797 284.149C84.6797 282.427 86.0758 281.031 87.7979 281.031C89.5199 281.031 90.916 282.427 90.916 284.149Z" fill="#BFBFC0"/>
<path d="M110.454 291.479C110.454 293.199 109.058 294.595 107.336 294.595C105.615 294.595 104.218 293.199 104.218 291.479C104.218 289.755 105.614 288.36 107.336 288.36C109.058 288.359 110.454 289.755 110.454 291.479Z" fill="#BFBFC0"/>
<path d="M148.709 272.683C148.709 274.403 147.313 275.801 145.591 275.801C143.87 275.801 142.473 274.405 142.473 272.683C142.473 270.961 143.869 269.564 145.591 269.564C147.313 269.563 148.709 270.961 148.709 272.683Z" fill="#BFBFC0"/>
<path d="M379.682 21.084C379.682 22.8047 378.286 24.2022 376.564 24.2022C374.843 24.2022 373.447 22.8061 373.447 21.084C373.447 19.3619 374.843 17.9658 376.564 17.9658C378.286 17.9658 379.682 19.3619 379.682 21.084Z" fill="#BFBFC0"/>
<path d="M328.447 281.974C328.447 283.694 327.051 285.09 325.327 285.09C323.607 285.09 322.209 283.694 322.209 281.974C322.209 280.252 323.605 278.855 325.327 278.855C327.051 278.854 328.447 280.25 328.447 281.974Z" fill="#BFBFC0"/>
</svg>
