<svg width="125" height="127" viewBox="0 0 125 127" fill="none" xmlns="http://www.w3.org/2000/svg">
    <g filter="url(#filter0_dd_30_3704)">
        <g clip-path="url(#clip0_30_3704)">
            <rect x="46.3008" width="80" height="80" rx="12" transform="rotate(28.6058 46.3008 0)" fill="white"/>
            <g clip-path="url(#clip1_30_3704)">
                <path d="M30.6508 61.1685L73.5933 84.5871L72.0321 87.4499L29.0896 64.0313L30.6508 61.1685ZM50.3628 40.3472C49.7933 40.0367 49.1238 39.9651 48.5016 40.1481C47.8793 40.3312 47.3553 40.754 47.0447 41.3234L36.5063 60.6475L45.0948 65.3313L55.6332 46.0071C55.9437 45.4377 56.0154 44.7682 55.8323 44.1459C55.6492 43.5237 55.2265 42.9996 54.657 42.6891L50.3628 40.3472ZM57.0005 58.8241C56.4311 58.5136 55.7616 58.442 55.1393 58.625C54.5171 58.8081 53.993 59.2309 53.6825 59.8003L49.3891 67.6731L57.9776 72.3568L62.271 64.4841C62.5815 63.9146 62.6531 63.2451 62.4701 62.6228C62.287 62.0006 61.8642 61.4765 61.2948 61.166L57.0005 58.8241ZM67.5414 70.144C66.972 69.8334 66.3025 69.7618 65.6802 69.9449C65.0579 70.1279 64.5339 70.5507 64.2234 71.1202L62.2718 74.6987L70.8603 79.3824L72.8118 75.8039C73.1224 75.2344 73.194 74.5649 73.0109 73.9427C72.8279 73.3204 72.4051 72.7964 71.8357 72.4858L67.5414 70.144ZM59.9041 49.4134C59.5164 51.2562 59.5968 53.1668 60.138 54.9704C60.6791 56.7741 61.6638 58.4134 63.0019 59.7384C63.7938 60.5045 64.686 61.1597 65.6539 61.6861C68.3114 63.1354 71.4357 63.4696 74.3395 62.6152C77.2434 61.7609 79.6889 59.788 81.1382 57.1306C81.3452 56.7509 81.393 56.3046 81.2709 55.8898C81.1489 55.4749 80.867 55.1256 80.4874 54.9185L75.4774 52.1864C74.908 51.8758 74.4852 51.3518 74.3021 50.7295C74.1191 50.1073 74.1907 49.4378 74.5012 48.8683L77.2334 43.8584C77.4404 43.4787 77.4882 43.0324 77.3661 42.6176C77.2441 42.2027 76.9623 41.8534 76.5826 41.6463C75.0897 40.8283 73.4327 40.3547 71.7331 40.26C70.0334 40.1654 68.3341 40.4521 66.7596 41.0993C65.0268 41.823 63.4968 42.9585 62.3022 44.4073C61.1075 45.8561 60.2844 47.5745 59.9041 49.4134Z" fill="#EA5511"/>
                <path d="M79.1844 50.4945L87.7729 55.1782C88.1525 55.3853 88.5989 55.433 89.0137 55.311C89.4286 55.1889 89.7779 54.9071 89.9849 54.5274C91.4342 51.87 91.7684 48.7457 90.9141 45.8418C90.0597 42.938 88.0868 40.4924 85.4294 39.0432C85.0497 38.8362 84.6034 38.7884 84.1886 38.9105C83.7737 39.0325 83.4244 39.3144 83.2173 39.694L78.9161 47.5811C78.1043 49.0698 78.3971 50.0652 79.1844 50.4945ZM52.5068 21.0889L72.5466 32.0176L70.9854 34.8804L50.9456 23.9518L52.5068 21.0889ZM49.3844 26.8146L62.2671 33.8402L60.7059 36.703L47.8231 29.6774L49.3844 26.8146Z" fill="#EA5511"/>
            </g>
        </g>
    </g>

    <defs>
        <filter id="filter0_dd_30_3704" x="-4.00195" y="-2" width="132.537" height="132.537" filterUnits="userSpaceOnUse" color-interpolation-filters="sRGB">
            <feFlood flood-opacity="0" result="BackgroundImageFix"/>
            <feColorMatrix in="SourceAlpha" type="matrix" values="0 0 0 0 0 0 0 0 0 0 0 0 0 0 0 0 0 0 127 0" result="hardAlpha"/>
            <feMorphology radius="2" operator="erode" in="SourceAlpha" result="effect1_dropShadow_30_3704"/>
            <feOffset dy="4"/>
            <feGaussianBlur stdDeviation="3"/>
            <feColorMatrix type="matrix" values="0 0 0 0 0 0 0 0 0 0 0 0 0 0 0 0 0 0 0.05 0"/>
            <feBlend mode="normal" in2="BackgroundImageFix" result="effect1_dropShadow_30_3704"/>
            <feColorMatrix in="SourceAlpha" type="matrix" values="0 0 0 0 0 0 0 0 0 0 0 0 0 0 0 0 0 0 127 0" result="hardAlpha"/>
            <feMorphology radius="3" operator="erode" in="SourceAlpha" result="effect2_dropShadow_30_3704"/>
            <feOffset dy="10"/>
            <feGaussianBlur stdDeviation="7.5"/>
            <feColorMatrix type="matrix" values="0 0 0 0 0 0 0 0 0 0 0 0 0 0 0 0 0 0 0.1 0"/>
            <feBlend mode="normal" in2="effect1_dropShadow_30_3704" result="effect2_dropShadow_30_3704"/>
            <feBlend mode="normal" in="SourceGraphic" in2="effect2_dropShadow_30_3704" result="shape"/>
        </filter>
        <clipPath id="clip0_30_3704">
            <rect x="46.3008" width="80" height="80" rx="12" transform="rotate(28.6058 46.3008 0)" fill="white"/>
        </clipPath>
        <clipPath id="clip1_30_3704">
            <rect width="52.1739" height="52.1739" fill="white" transform="translate(51.8545 18.876) rotate(28.6058)"/>
        </clipPath>
    </defs>
</svg>
