<svg width="173" height="40" viewBox="0 0 173 40" fill="none" xmlns="http://www.w3.org/2000/svg">
    <path d="M16.5978 40C15.5578 40 14.5385 39.8309 13.564 39.4961C10.8987 38.5747 8.89456 36.5559 8.07843 33.9573L0.330449 9.43083C-0.616527 6.41808 0.516401 3.18102 3.1576 1.37268C5.96754 -0.563341 9.65902 -0.446006 12.3278 1.69018L28.2266 14.4003C31.0159 16.6228 34.8658 16.7712 37.8032 14.7316L48.5195 7.3119C51.2089 5.46215 54.7867 5.50011 57.4245 7.40507C59.9279 9.21686 60.9954 12.2779 60.1518 15.2009L54.9004 33.305C54.1049 36.0382 51.9561 38.202 49.1462 39.0924C46.2054 40.038 43.0132 39.4685 40.6131 37.5498L37.142 34.7717C34.363 32.5561 30.5304 32.4216 27.5999 34.4231L21.8079 38.3884C20.2858 39.4409 18.4814 40 16.5978 40ZM7.53435 5.80725C7.15556 5.80725 6.77333 5.92113 6.43242 6.1558C5.87801 6.53887 5.66795 7.09448 5.8539 7.68461L13.5984 32.211C13.8636 33.0531 14.5213 33.6881 15.4545 34.009C16.4807 34.3645 17.6549 34.2126 18.533 33.6087L24.332 29.6366C29.3699 26.1786 35.9712 26.4168 40.7508 30.2405L44.2219 33.0186C45.0966 33.7191 46.2812 33.9262 47.3831 33.5673C48.3611 33.2567 49.0877 32.5561 49.339 31.6865L54.5905 13.5824C54.7523 13.0302 54.5422 12.4815 54.036 12.1088C53.3714 11.6326 52.4727 11.6188 51.8081 12.0847L41.0917 19.5044C36.0332 23.0072 29.4147 22.7725 24.6144 18.9315L8.71893 6.22482C8.36425 5.94529 7.95102 5.8038 7.53435 5.8038V5.80725Z" fill="url(#paint0_linear_167_664)"/>
    <path d="M87.2596 15.1729L81.8532 29.6844H81.5743L77.6521 21.2294L73.692 29.7051H73.4338L68.0859 15.1729H71.0371L73.8711 23.1344L77.5557 15.1729H77.7348L81.4194 23.1516L84.3119 15.1729H87.2631H87.2596Z" fill="#222324"/>
    <path d="M93.3995 17.6129V21.2469H100.411V23.7696H93.3995V27.1826H101.302V29.6846H90.624V15.1523H101.302V17.6129H93.3995Z" fill="#222324"/>
    <path d="M119.884 15.1726V29.6842H117.112V22.3404L112.577 27.7999L108.059 22.3404V29.6842H105.287V15.1726H105.466L112.577 23.5482L119.709 15.1726H119.888H119.884Z" fill="#222324"/>
    <path d="M122.935 29.6842L130.342 15.1726H130.621L138.028 29.6842H135.018L133.888 27.403H127.053L125.944 29.6842H122.935ZM128.403 24.9804H132.542L130.483 20.5942L128.403 24.9804Z" fill="#222324"/>
    <path d="M139.812 27.7764L141.317 25.5539C142.044 26.0577 142.795 26.4891 143.566 26.8549C144.337 27.2207 145.147 27.4002 145.994 27.4002C146.441 27.4002 146.837 27.345 147.182 27.2311C147.526 27.1172 147.815 26.9723 148.053 26.7928C148.291 26.6134 148.47 26.4097 148.587 26.1785C148.704 25.9473 148.766 25.7195 148.766 25.4952C148.766 25.2053 148.676 24.9569 148.497 24.7498C148.318 24.5462 148.08 24.3771 147.784 24.2425C147.488 24.1114 147.137 23.9975 146.734 23.9043C146.331 23.8111 145.911 23.7248 145.477 23.6455C145.188 23.5937 144.85 23.5316 144.468 23.4557C144.086 23.3832 143.69 23.2831 143.28 23.1589C142.87 23.0346 142.467 22.869 142.071 22.6619C141.675 22.4549 141.317 22.1995 141.001 21.8889C140.684 21.5783 140.429 21.2091 140.239 20.7777C140.047 20.3497 139.95 19.8424 139.95 19.2592C139.95 18.4137 140.122 17.7063 140.467 17.1437C140.811 16.5812 141.248 16.1395 141.786 15.8151C142.319 15.4907 142.915 15.2629 143.569 15.1318C144.224 15.0007 144.854 14.9316 145.46 14.9316C146.066 14.9316 146.61 14.9731 147.085 15.049C147.56 15.1283 148.001 15.2457 148.414 15.3975C148.824 15.5494 149.224 15.7426 149.613 15.9739C150.002 16.2051 150.422 16.4812 150.87 16.7986L149.324 18.9831C148.638 18.5069 147.977 18.1445 147.344 17.8926C146.71 17.6407 146.042 17.5165 145.343 17.5165C145.105 17.5165 144.833 17.5475 144.53 17.6062C144.227 17.6649 143.938 17.7615 143.669 17.8926C143.397 18.0238 143.173 18.1929 142.998 18.3999C142.819 18.607 142.729 18.852 142.729 19.1453C142.729 19.4387 142.836 19.6802 143.046 19.8804C143.256 20.0806 143.528 20.2462 143.859 20.3774C144.189 20.5085 144.554 20.6224 144.947 20.7156C145.343 20.8087 145.725 20.9019 146.097 20.9916C146.372 21.0572 146.7 21.1228 147.078 21.1918C147.454 21.2574 147.843 21.3505 148.246 21.4679C148.649 21.5852 149.048 21.7474 149.444 21.9441C149.84 22.1408 150.195 22.3962 150.505 22.7102C150.815 23.0208 151.066 23.4039 151.259 23.8629C151.452 24.3219 151.548 24.8706 151.548 25.5194C151.548 26.2752 151.414 26.9274 151.152 27.483C150.887 28.0386 150.512 28.4976 150.023 28.8634C149.534 29.2258 148.952 29.5019 148.28 29.6882C147.605 29.8746 146.861 29.9643 146.042 29.9643C145.288 29.9643 144.627 29.9091 144.052 29.7952C143.476 29.6813 142.953 29.5295 142.478 29.3397C142.003 29.1464 141.555 28.9186 141.131 28.6564C140.708 28.3906 140.274 28.1007 139.823 27.7833L139.812 27.7764Z" fill="#222324"/>
    <path d="M166.967 15.1726C166.598 15.78 166.171 16.4771 165.689 17.2571C165.207 18.037 164.715 18.8342 164.212 19.6486C163.709 20.4631 163.213 21.2637 162.728 22.0505C162.239 22.8374 161.808 23.5483 161.44 24.1833V29.6807H158.668V24.1833C157.81 22.6752 156.898 21.174 155.934 19.6762C154.969 18.1819 154.05 16.6773 153.179 15.1692H156.405C157.001 16.1631 157.607 17.188 158.227 18.2475C158.847 19.307 159.456 20.3319 160.049 21.3258C160.338 20.8634 160.641 20.3664 160.958 19.8384C161.275 19.3104 161.591 18.7755 161.908 18.2406C162.225 17.7057 162.538 17.1742 162.848 16.6531C163.158 16.132 163.454 15.6385 163.73 15.1726H166.96H166.967Z" fill="#222324"/>
    <path d="M170.247 15.4424C169.71 15.4424 169.255 15.2491 168.876 14.8661C168.497 14.4796 168.312 14.0171 168.312 13.4788C168.312 12.9404 168.501 12.4745 168.876 12.0915C169.255 11.7049 169.71 11.5151 170.247 11.5151C170.784 11.5151 171.235 11.7084 171.61 12.0915C171.989 12.478 172.175 12.9404 172.175 13.4788C172.175 14.0171 171.986 14.483 171.61 14.8661C171.232 15.2526 170.777 15.4424 170.247 15.4424ZM170.247 11.8671C169.809 11.8671 169.434 12.0259 169.124 12.3399C168.814 12.654 168.656 13.0336 168.656 13.4788C168.656 13.924 168.811 14.307 169.124 14.6211C169.434 14.9351 169.809 15.0938 170.247 15.0938C170.684 15.0938 171.053 14.9351 171.363 14.6211C171.672 14.307 171.827 13.924 171.827 13.4788C171.827 13.0336 171.672 12.6574 171.363 12.3399C171.053 12.0259 170.681 11.8671 170.247 11.8671ZM169.902 14.4036H169.541V12.5366H170.374C170.57 12.5366 170.729 12.5988 170.853 12.723C170.977 12.8472 171.039 13.0094 171.039 13.2061C171.039 13.3442 170.997 13.4753 170.915 13.5961C170.832 13.7169 170.732 13.7928 170.608 13.8273C170.843 14.1379 170.991 14.3277 171.053 14.4036H170.605C170.577 14.3657 170.54 14.3105 170.488 14.2414C170.436 14.1724 170.391 14.1069 170.35 14.0516C170.309 13.993 170.267 13.9378 170.23 13.886H169.902V14.4036ZM169.902 12.8921V13.5236H170.378C170.44 13.5236 170.505 13.4995 170.577 13.4477C170.646 13.3959 170.681 13.3166 170.681 13.2061C170.681 13.1061 170.65 13.0267 170.584 12.9749C170.519 12.9197 170.45 12.8955 170.378 12.8955H169.902V12.8921Z" fill="#222324"/>
    <defs>
        <linearGradient id="paint0_linear_167_664" x1="6.98339" y1="32.3767" x2="60.5818" y2="-0.980064" gradientUnits="userSpaceOnUse">
            <stop offset="0.24" stop-color="#E42919"/>
            <stop offset="0.88" stop-color="#EA5610"/>
        </linearGradient>
    </defs>
</svg>
